<?xml version="1.0" encoding="UTF-8" standalone="no"?>
<!-- Created with Inkscape (http://www.inkscape.org/) -->

<svg
   width="459.47223mm"
   height="151.1149mm"
   viewBox="0 0 459.47223 151.11489"
   version="1.1"
   id="svg1"
   inkscape:version="1.4.3 (0d15f75, 2025-12-25)"
   sodipodi:docname="logo-transparent-paths.svg"
   xmlns:inkscape="http://www.inkscape.org/namespaces/inkscape"
   xmlns:sodipodi="http://sodipodi.sourceforge.net/DTD/sodipodi-0.dtd"
   xmlns="http://www.w3.org/2000/svg"
   xmlns:svg="http://www.w3.org/2000/svg">
  <sodipodi:namedview
     id="namedview1"
     pagecolor="#ffffff"
     bordercolor="#000000"
     borderopacity="0.25"
     inkscape:showpageshadow="2"
     inkscape:pageopacity="0.0"
     inkscape:pagecheckerboard="0"
     inkscape:deskcolor="#d1d1d1"
     inkscape:document-units="mm"
     showguides="false"
     inkscape:zoom="1"
     inkscape:cx="1122.5"
     inkscape:cy="117"
     inkscape:window-width="3840"
     inkscape:window-height="2036"
     inkscape:window-x="3828"
     inkscape:window-y="829"
     inkscape:window-maximized="1"
     inkscape:current-layer="layer1">
    <sodipodi:guide
       position="332.294,137.72724"
       orientation="1,0"
       id="guide1"
       inkscape:locked="false" />
    <sodipodi:guide
       position="274.93571,138.23311"
       orientation="1,0"
       id="guide2"
       inkscape:locked="false" />
    <sodipodi:guide
       position="278.36984,54.611278"
       orientation="1,0"
       id="guide3"
       inkscape:locked="false" />
    <sodipodi:guide
       position="303.96239,72.893189"
       orientation="-1,0"
       id="guide5"
       inkscape:locked="false" />
    <sodipodi:guide
       position="278.36985,54.611276"
       orientation="1,0"
       id="guide6"
       inkscape:locked="false" />
    <sodipodi:guide
       position="459.47157,52.23003"
       orientation="1,0"
       id="guide7"
       inkscape:locked="false" />
    <sodipodi:guide
       position="329.50672,54.611278"
       orientation="1,0"
       id="guide8"
       inkscape:locked="false" />
    <sodipodi:guide
       position="5.7822934e-05,54.611277"
       orientation="1,0"
       id="guide4"
       inkscape:locked="false" />
  </sodipodi:namedview>
  <defs
     id="defs1" />
  <g
     inkscape:label="Layer 1"
     inkscape:groupmode="layer"
     id="layer1"
     transform="translate(55.700241,-1.7019131)">
    <path
       style="font-weight:600;font-size:79.4448px;font-family:Montserrat;-inkscape-font-specification:'Montserrat, Semi-Bold';letter-spacing:10.8334px;stroke-width:0.270835"
       d="m -27.065553,71.941466 c 17.2395221,0 29.9506903,-12.075609 29.9506903,-28.600128 0,-16.524519 -12.7111682,-28.600129 -29.9506903,-28.600129 -17.239522,0 -29.95069,12.155055 -29.95069,28.600129 0,16.445074 12.711168,28.600128 29.95069,28.600128 z m 0,-9.056707 c -11.201717,0 -19.543421,-8.182814 -19.543421,-19.543421 0,-11.360607 8.341704,-19.543421 19.543421,-19.543421 11.201717,0 19.5434214,8.182814 19.5434214,19.543421 0,11.360607 -8.3417044,19.543421 -19.5434214,19.543421 z m 51.747548,8.262259 h 27.646791 c 14.300064,0 21.767876,-5.561136 21.767876,-15.094512 0,-7.229477 -4.051685,-11.91672 -10.010045,-13.823395 4.210574,-2.224455 7.150032,-6.514474 7.150032,-12.2345 0,-8.818373 -7.150032,-14.458953 -20.496759,-14.458953 H 24.681995 Z m 10.327824,-8.103369 v -16.04785 h 16.683409 c 7.78559,0 11.996165,2.462789 11.996165,8.023925 0,5.561136 -4.210575,8.023925 -11.996165,8.023925 z m 0,-24.071775 V 23.639027 h 14.617844 c 7.150032,0 11.201717,2.542234 11.201717,7.706146 0,5.084467 -4.051685,7.626701 -11.201717,7.626701 z M 95.972873,71.147018 H 106.3007 V 54.940279 h 12.55228 c 0.715,0 1.43,0 2.14501,-0.07944 l 11.3606,16.286184 h 11.12227 L 130.69025,52.954159 c 7.54726,-3.018903 11.83728,-9.136152 11.83728,-17.636746 0,-12.313944 -8.89782,-19.781755 -23.754,-19.781755 H 95.972873 Z M 106.3007,46.439685 V 24.274586 h 12.07561 c 9.0567,0 13.74395,4.051685 13.74395,11.042827 0,6.991143 -4.68725,11.122272 -13.74395,11.122272 z m 50.71476,24.707333 h 10.6456 l 5.4817,-12.870057 h 27.80568 l 5.56113,12.870057 h 10.8045 l -25.10456,-55.61136 h -10.16894 z m 19.62287,-20.973427 10.40727,-24.310109 10.40727,24.310109 z m 72.08531,20.973427 h 10.16894 l 24.23066,-55.61136 H 272.79542 L 254.12589,58.356405 235.61525,15.535658 h -11.20172 z m 51.112,0 h 41.70852 v -8.659483 h -31.3807 V 47.154688 H 337.0158 V 38.654095 H 310.16346 V 24.195141 h 30.26847 v -8.659483 h -40.59629 z m 64.0614,0 h 10.24838 V 33.490183 l 30.66569,37.656835 h 8.50059 V 15.535658 H 403.06332 V 53.192493 L 372.39763,15.535658 h -8.50059 z"
       id="text1-3-8"
       class="wordmark"
       transform="scale(0.97691882,1.0236265)"
       aria-label="OBRAVEN" />
    <rect
       x="-55.700184"
       y="95.82428"
       width="278.36978"
       height="4.7624998"
       rx="0"
       ry="0"
       fill="#7a8ca3"
       id="rect2-6-2"
       style="stroke-width:0.265863" />
    <circle
       cx="248.26216"
       cy="98.205528"
       fill="#c7923c"
       id="circle2-0-9"
       style="stroke-width:0.243695"
       r="9.260417" />
    <rect
       x="273.80649"
       y="95.82428"
       width="129.96484"
       height="4.7624998"
       rx="0"
       ry="0"
       fill="#7a8ca3"
       id="rect3-6-1"
       style="stroke-width:0.256171" />
    <path
       style="font-size:23.6361px;font-family:Montserrat;-inkscape-font-specification:'Montserrat, Normal';text-align:end;letter-spacing:0px;text-anchor:end;stroke-width:0.264583"
       d="m 93.997868,140.24236 c 4.230862,0 6.169022,-2.07998 6.169022,-4.5145 0,-6.0272 -10.187159,-3.28542 -10.187159,-7.82355 0,-1.65452 1.347258,-3.00178 4.372679,-3.00178 1.465438,0 3.119965,0.44908 4.538131,1.37089 l 0.590902,-1.39453 c -1.323621,-0.92181 -3.261782,-1.46544 -5.129033,-1.46544 -4.207226,0 -6.098114,2.10362 -6.098114,4.53813 0,6.12175 10.187159,3.33269 10.187159,7.87083 0,1.63089 -1.347258,2.93087 -4.443587,2.93087 -2.174521,0 -4.278134,-0.8509 -5.459939,-2.00907 l -0.685447,1.34726 c 1.229077,1.27635 3.663595,2.15089 6.145386,2.15089 z m 14.890742,-0.0236 c 1.96179,0 3.68723,-0.70908 4.79812,-2.0327 l -0.94544,-1.08726 c -0.94544,1.08726 -2.2927,1.63089 -3.80541,1.63089 -2.74179,0 -4.72722,-1.74908 -4.91631,-4.32541 h 10.42352 c 0,-0.18909 0.0236,-0.37818 0.0236,-0.51999 0,-3.73451 -2.52907,-6.31084 -6.02721,-6.31084 -3.49814,0 -6.07448,2.6236 -6.07448,6.31084 0,3.68723 2.64725,6.33447 6.52357,6.33447 z m -4.8454,-7.06719 c 0.21272,-2.43452 1.98543,-4.13632 4.39631,-4.13632 2.43452,0 4.20723,1.7018 4.41995,4.13632 z m 19.1216,7.06719 c 1.9618,0 3.68724,-0.70908 4.79813,-2.0327 l -0.94544,-1.08726 c -0.94545,1.08726 -2.2927,1.63089 -3.80541,1.63089 -2.74179,0 -4.72722,-1.74908 -4.91631,-4.32541 h 10.42352 c 0,-0.18909 0.0236,-0.37818 0.0236,-0.51999 0,-3.73451 -2.52906,-6.31084 -6.0272,-6.31084 -3.49814,0 -6.07448,2.6236 -6.07448,6.31084 0,3.68723 2.64724,6.33447 6.52356,6.33447 z m -4.8454,-7.06719 c 0.21273,-2.43452 1.98544,-4.13632 4.39632,-4.13632 2.43452,0 4.20722,1.7018 4.41995,4.13632 z m 20.32703,6.94901 h 1.67817 v -11.01442 h 3.78177 v -1.41817 h -3.82905 v -1.46544 c 0,-1.53634 0.75636,-2.33997 2.19816,-2.33997 0.70908,0 1.37089,0.21272 1.84362,0.61454 l 0.56726,-1.25272 c -0.61454,-0.51999 -1.55998,-0.77999 -2.48179,-0.77999 -2.43452,0 -3.75814,1.46544 -3.75814,3.68723 v 1.53635 h -2.22179 v 1.41817 h 2.22179 z m 12.85806,0.11818 c 1.98543,0 3.59268,-0.87454 4.46722,-2.36361 v 2.24543 h 1.60725 v -12.43259 h -1.67816 v 6.52356 c 0,2.83634 -1.63089,4.5145 -4.23086,4.5145 -2.36361,0 -3.7345,-1.34726 -3.7345,-3.9945 v -7.04356 h -1.67817 v 7.20901 c 0,3.56905 2.07998,5.34176 5.24722,5.34176 z m 10.77806,-0.11818 h 1.67817 v -6.33447 c 0,-2.93088 1.58361,-4.58541 4.18359,-4.58541 0.11818,0 0.25999,0.0236 0.40181,0.0236 v -1.63089 c -2.26907,0 -3.87632,0.87453 -4.65631,2.50542 v -2.41088 h -1.60726 z m 13.75618,0.11818 c 0.96908,0 1.96179,-0.28363 2.6236,-0.87454 l -0.5909,-1.20544 c -0.47272,0.42545 -1.15817,0.63818 -1.84361,0.63818 -1.39453,0 -2.15089,-0.80363 -2.15089,-2.26907 v -7.42173 h 3.78178 v -1.41817 h -3.78178 v -2.71815 h -1.67816 v 2.71815 h -2.2218 v 1.41817 h 2.2218 v 7.51628 c 0,2.2927 1.29998,3.61632 3.63996,3.61632 z m 5.67266,-0.11818 h 1.67817 v -6.52356 c 0,-2.83634 1.67816,-4.49086 4.34904,-4.49086 2.36361,0 3.7345,1.34725 3.7345,3.97086 v 7.04356 h 1.67817 v -7.20901 c 0,-3.56905 -2.07998,-5.31812 -5.1054,-5.31812 -2.10361,0 -3.75814,0.82726 -4.65631,2.26906 v -7.27992 h -1.67817 z m 21.2725,0.11818 c 1.9618,0 3.68723,-0.70908 4.79813,-2.0327 l -0.94544,-1.08726 c -0.94545,1.08726 -2.29271,1.63089 -3.80542,1.63089 -2.74178,0 -4.72722,-1.74908 -4.9163,-4.32541 h 10.42352 c 0,-0.18909 0.0236,-0.37818 0.0236,-0.51999 0,-3.73451 -2.52906,-6.31084 -6.0272,-6.31084 -3.49815,0 -6.07448,2.6236 -6.07448,6.31084 0,3.68723 2.64724,6.33447 6.52356,6.33447 z m -4.8454,-7.06719 c 0.21273,-2.43452 1.98543,-4.13632 4.39632,-4.13632 2.43451,0 4.20722,1.7018 4.41995,4.13632 z m 13.85076,6.94901 h 1.67816 v -6.33447 c 0,-2.93088 1.58362,-4.58541 4.18359,-4.58541 0.11818,0 0.26,0.0236 0.40182,0.0236 v -1.63089 c -2.26907,0 -3.87633,0.87453 -4.65632,2.50542 v -2.41088 h -1.60725 z m 9.40714,0.11818 c 0.68544,0 1.27634,-0.56727 1.27634,-1.29998 0,-0.73272 -0.5909,-1.27635 -1.27634,-1.27635 -0.68545,0 -1.25272,0.54363 -1.25272,1.27635 0,0.73271 0.56727,1.29998 1.25272,1.29998 z m 19.2859,-0.11818 h 6.73629 c 5.29449,0 8.86354,-3.4036 8.86354,-8.27264 0,-4.86903 -3.56905,-8.27263 -8.86354,-8.27263 h -6.73629 z m 1.74907,-1.51271 v -13.51985 h 4.89268 c 4.39631,0 7.23264,2.78906 7.23264,6.75992 0,3.97087 -2.83633,6.75993 -7.23264,6.75993 z m 22.69066,1.63089 c 1.9618,0 3.68723,-0.70908 4.79813,-2.0327 l -0.94544,-1.08726 c -0.94545,1.08726 -2.29271,1.63089 -3.80542,1.63089 -2.74178,0 -4.72722,-1.74908 -4.9163,-4.32541 h 10.42352 c 0,-0.18909 0.0236,-0.37818 0.0236,-0.51999 0,-3.73451 -2.52906,-6.31084 -6.0272,-6.31084 -3.49815,0 -6.07448,2.6236 -6.07448,6.31084 0,3.68723 2.64724,6.33447 6.52356,6.33447 z m -4.8454,-7.06719 c 0.21273,-2.43452 1.98543,-4.13632 4.39632,-4.13632 2.43451,0 4.20722,1.7018 4.41995,4.13632 z m 19.00344,7.06719 c 2.10361,0 3.87632,-0.8509 4.86903,-2.45815 l -1.25271,-0.8509 c -0.8509,1.25271 -2.17452,1.81998 -3.61632,1.81998 -2.71816,0 -4.70359,-1.91453 -4.70359,-4.8454 0,-2.90724 1.98543,-4.8454 4.70359,-4.8454 1.4418,0 2.76542,0.5909 3.61632,1.84361 l 1.25271,-0.8509 c -0.99271,-1.63089 -2.76542,-2.45815 -4.86903,-2.45815 -3.71087,0 -6.40539,2.59997 -6.40539,6.31084 0,3.71086 2.69452,6.33447 6.40539,6.33447 z m 7.96537,-0.11818 h 1.67816 v -12.43259 h -1.67816 z m 0.8509,-15.15074 c 0.70908,0 1.22908,-0.54363 1.22908,-1.22908 0,-0.63817 -0.54364,-1.15817 -1.22908,-1.15817 -0.70908,0 -1.22908,0.54363 -1.22908,1.18181 0,0.66181 0.52,1.20544 1.22908,1.20544 z m 10.44712,15.26892 c 2.05634,0 3.78178,-0.89817 4.79813,-2.5527 v 2.43452 h 1.60725 v -17.53799 h -1.67816 v 7.46901 c -1.01635,-1.60725 -2.74179,-2.45815 -4.72722,-2.45815 -3.54541,0 -6.19266,2.5527 -6.19266,6.31084 0,3.75814 2.64725,6.33447 6.19266,6.33447 z m 0.14182,-1.48907 c -2.64725,0 -4.63268,-1.93816 -4.63268,-4.8454 0,-2.90724 1.98543,-4.8454 4.63268,-4.8454 2.62361,0 4.60904,1.93816 4.60904,4.8454 0,2.90724 -1.98543,4.8454 -4.60904,4.8454 z m 16.21436,1.48907 c 1.96179,0 3.68723,-0.70908 4.79812,-2.0327 l -0.94544,-1.08726 c -0.94544,1.08726 -2.2927,1.63089 -3.80541,1.63089 -2.74179,0 -4.72722,-1.74908 -4.91631,-4.32541 h 10.42352 c 0,-0.18909 0.0236,-0.37818 0.0236,-0.51999 0,-3.73451 -2.52907,-6.31084 -6.02721,-6.31084 -3.49814,0 -6.07448,2.6236 -6.07448,6.31084 0,3.68723 2.64724,6.33447 6.52357,6.33447 z m -4.84541,-7.06719 c 0.21273,-2.43452 1.98544,-4.13632 4.39632,-4.13632 2.43452,0 4.20723,1.7018 4.41995,4.13632 z m 26.44878,7.06719 c 3.54541,0 6.19266,-2.57633 6.19266,-6.33447 0,-3.75814 -2.64725,-6.31084 -6.19266,-6.31084 -1.98543,0 -3.68723,0.8509 -4.72722,2.45815 v -7.46901 h -1.67816 v 17.53799 h 1.60725 v -2.43452 c 1.01635,1.65453 2.76543,2.5527 4.79813,2.5527 z m -0.11818,-1.48907 c -2.64724,0 -4.63268,-1.93816 -4.63268,-4.8454 0,-2.90724 1.98544,-4.8454 4.63268,-4.8454 2.62361,0 4.63268,1.93816 4.63268,4.8454 0,2.90724 -2.00907,4.8454 -4.63268,4.8454 z m 15.00893,1.48907 c 1.9618,0 3.68723,-0.70908 4.79813,-2.0327 l -0.94544,-1.08726 c -0.94545,1.08726 -2.29271,1.63089 -3.80542,1.63089 -2.74178,0 -4.72722,-1.74908 -4.91631,-4.32541 h 10.42352 c 0,-0.18909 0.0236,-0.37818 0.0236,-0.51999 0,-3.73451 -2.52906,-6.31084 -6.02721,-6.31084 -3.49814,0 -6.07447,2.6236 -6.07447,6.31084 0,3.68723 2.64724,6.33447 6.52356,6.33447 z m -4.8454,-7.06719 c 0.21273,-2.43452 1.98543,-4.13632 4.39631,-4.13632 2.43452,0 4.20723,1.7018 4.41996,4.13632 z m 17.77433,7.06719 c 0.96908,0 1.96179,-0.28363 2.6236,-0.87454 l -0.5909,-1.20544 c -0.47272,0.42545 -1.15817,0.63818 -1.84361,0.63818 -1.39453,0 -2.15089,-0.80363 -2.15089,-2.26907 v -7.42173 h 3.78178 v -1.41817 h -3.78178 v -2.71815 h -1.67816 v 2.71815 h -2.2218 v 1.41817 h 2.2218 v 7.51628 c 0,2.2927 1.29998,3.61632 3.63996,3.61632 z m 9.26538,0 c 0.96908,0 1.96179,-0.28363 2.62361,-0.87454 l -0.59091,-1.20544 c -0.47272,0.42545 -1.15817,0.63818 -1.84361,0.63818 -1.39453,0 -2.15089,-0.80363 -2.15089,-2.26907 v -7.42173 h 3.78178 v -1.41817 h -3.78178 v -2.71815 h -1.67816 v 2.71815 h -2.22179 v 1.41817 h 2.22179 v 7.51628 c 0,2.2927 1.29998,3.61632 3.63996,3.61632 z m 10.49444,0 c 1.9618,0 3.68723,-0.70908 4.79813,-2.0327 l -0.94544,-1.08726 c -0.94545,1.08726 -2.29271,1.63089 -3.80542,1.63089 -2.74178,0 -4.72722,-1.74908 -4.9163,-4.32541 H 389.637 c 0,-0.18909 0.0236,-0.37818 0.0236,-0.51999 0,-3.73451 -2.52906,-6.31084 -6.0272,-6.31084 -3.49815,0 -6.07448,2.6236 -6.07448,6.31084 0,3.68723 2.64724,6.33447 6.52356,6.33447 z m -4.8454,-7.06719 c 0.21273,-2.43452 1.98543,-4.13632 4.39632,-4.13632 2.43451,0 4.20722,1.7018 4.41995,4.13632 z m 13.85077,6.94901 h 1.67816 v -6.33447 c 0,-2.93088 1.58362,-4.58541 4.18359,-4.58541 0.11818,0 0.26,0.0236 0.40181,0.0236 v -1.63089 c -2.26906,0 -3.87632,0.87453 -4.65631,2.50542 v -2.41088 h -1.60725 z m 9.40712,0.11818 c 0.68544,0 1.27635,-0.56727 1.27635,-1.29998 0,-0.73272 -0.59091,-1.27635 -1.27635,-1.27635 -0.68545,0 -1.25272,0.54363 -1.25272,1.27635 0,0.73271 0.56727,1.29998 1.25272,1.29998 z"
       id="text3-1-3"
       class="tagline"
       aria-label="See further.  Decide better." />
    <text
       xml:space="preserve"
       style="font-size:19.8967px;font-family:Montserrat;-inkscape-font-specification:'Montserrat, Normal';letter-spacing:2.64583px;writing-mode:lr-tb;direction:ltr;fill:#000000;stroke-width:0.264583"
       x="70.90094"
       y="216.80817"
       id="text4"><tspan
         sodipodi:role="line"
         id="tspan4"
         style="stroke-width:0.264583"
         x="70.90094"
         y="216.80817" /></text>
  </g>
</svg>
