<?xml version="1.0" encoding="UTF-8" standalone="no"?>
<!-- Created with Inkscape (http://www.inkscape.org/) -->

<svg
   width="459.47223mm"
   height="92.37645mm"
   viewBox="0 0 459.47223 92.37644"
   version="1.1"
   id="svg1"
   inkscape:version="1.4.3 (0d15f75, 2025-12-25)"
   sodipodi:docname="logo-transparent-paths-no-tagline.svg"
   xmlns:inkscape="http://www.inkscape.org/namespaces/inkscape"
   xmlns:sodipodi="http://sodipodi.sourceforge.net/DTD/sodipodi-0.dtd"
   xmlns="http://www.w3.org/2000/svg"
   xmlns:svg="http://www.w3.org/2000/svg">
  <sodipodi:namedview
     id="namedview1"
     pagecolor="#ffffff"
     bordercolor="#000000"
     borderopacity="0.25"
     inkscape:showpageshadow="2"
     inkscape:pageopacity="0.0"
     inkscape:pagecheckerboard="0"
     inkscape:deskcolor="#d1d1d1"
     inkscape:document-units="mm"
     showguides="false"
     inkscape:zoom="1"
     inkscape:cx="1122.5"
     inkscape:cy="67"
     inkscape:window-width="3840"
     inkscape:window-height="2036"
     inkscape:window-x="3828"
     inkscape:window-y="829"
     inkscape:window-maximized="1"
     inkscape:current-layer="layer1">
    <sodipodi:guide
       position="332.29401,102.02914"
       orientation="1,0"
       id="guide1"
       inkscape:locked="false" />
    <sodipodi:guide
       position="274.93571,102.53501"
       orientation="1,0"
       id="guide2"
       inkscape:locked="false" />
    <sodipodi:guide
       position="278.36984,18.913181"
       orientation="1,0"
       id="guide3"
       inkscape:locked="false" />
    <sodipodi:guide
       position="303.9624,37.195093"
       orientation="-1,0"
       id="guide5"
       inkscape:locked="false" />
    <sodipodi:guide
       position="278.36985,18.913179"
       orientation="1,0"
       id="guide6"
       inkscape:locked="false" />
    <sodipodi:guide
       position="459.47158,16.531933"
       orientation="1,0"
       id="guide7"
       inkscape:locked="false" />
    <sodipodi:guide
       position="329.50673,18.913181"
       orientation="1,0"
       id="guide8"
       inkscape:locked="false" />
    <sodipodi:guide
       position="5.7529669e-05,18.91318"
       orientation="1,0"
       id="guide4"
       inkscape:locked="false" />
  </sodipodi:namedview>
  <defs
     id="defs1">
    <rect
       x="-53"
       y="-36"
       width="1890"
       height="467"
       id="rect2" />
    <rect
       x="-42"
       y="-55"
       width="1974"
       height="486"
       id="rect1" />
  </defs>
  <g
     inkscape:label="Layer 1"
     inkscape:groupmode="layer"
     id="layer1"
     transform="translate(55.700241,-15.089492)">
    <path
       style="font-weight:600;font-size:79.4448px;font-family:Montserrat;-inkscape-font-specification:'Montserrat, Semi-Bold';letter-spacing:10.8334px;stroke-width:0.270835"
       d="m -27.065553,71.941466 c 17.2395221,0 29.9506903,-12.075609 29.9506903,-28.600128 0,-16.524519 -12.7111682,-28.600129 -29.9506903,-28.600129 -17.239522,0 -29.95069,12.155055 -29.95069,28.600129 0,16.445074 12.711168,28.600128 29.95069,28.600128 z m 0,-9.056707 c -11.201717,0 -19.543421,-8.182814 -19.543421,-19.543421 0,-11.360607 8.341704,-19.543421 19.543421,-19.543421 11.201717,0 19.5434214,8.182814 19.5434214,19.543421 0,11.360607 -8.3417044,19.543421 -19.5434214,19.543421 z m 51.747548,8.262259 h 27.646791 c 14.300064,0 21.767876,-5.561136 21.767876,-15.094512 0,-7.229477 -4.051685,-11.91672 -10.010045,-13.823395 4.210574,-2.224455 7.150032,-6.514474 7.150032,-12.2345 0,-8.818373 -7.150032,-14.458953 -20.496759,-14.458953 H 24.681995 Z m 10.327824,-8.103369 v -16.04785 h 16.683409 c 7.78559,0 11.996165,2.462789 11.996165,8.023925 0,5.561136 -4.210575,8.023925 -11.996165,8.023925 z m 0,-24.071775 V 23.639027 h 14.617844 c 7.150032,0 11.201717,2.542234 11.201717,7.706146 0,5.084467 -4.051685,7.626701 -11.201717,7.626701 z M 95.972873,71.147018 H 106.3007 V 54.940279 h 12.55228 c 0.715,0 1.43,0 2.14501,-0.07944 l 11.3606,16.286184 h 11.12227 L 130.69025,52.954159 c 7.54726,-3.018903 11.83728,-9.136152 11.83728,-17.636746 0,-12.313944 -8.89782,-19.781755 -23.754,-19.781755 H 95.972873 Z M 106.3007,46.439685 V 24.274586 h 12.07561 c 9.0567,0 13.74395,4.051685 13.74395,11.042827 0,6.991143 -4.68725,11.122272 -13.74395,11.122272 z m 50.71476,24.707333 h 10.6456 l 5.4817,-12.870057 h 27.80568 l 5.56113,12.870057 h 10.8045 l -25.10456,-55.61136 h -10.16894 z m 19.62287,-20.973427 10.40727,-24.310109 10.40727,24.310109 z m 72.08531,20.973427 h 10.16894 l 24.23066,-55.61136 H 272.79542 L 254.12589,58.356405 235.61525,15.535658 h -11.20172 z m 51.112,0 h 41.70852 v -8.659483 h -31.3807 V 47.154688 H 337.0158 V 38.654095 H 310.16346 V 24.195141 h 30.26847 v -8.659483 h -40.59629 z m 64.0614,0 h 10.24838 V 33.490183 l 30.66569,37.656835 h 8.50059 V 15.535658 H 403.06332 V 53.192493 L 372.39763,15.535658 h -8.50059 z"
       id="text1-3-8"
       class="wordmark"
       aria-label="OBRAVEN"
       transform="scale(0.97691882,1.0236265)"
       clip-path="none" />
    <rect
       x="-55.700184"
       y="95.82428"
       width="278.36978"
       height="4.7624998"
       rx="0"
       ry="0"
       fill="#7a8ca3"
       id="rect2-6-2"
       style="stroke-width:0.265863"
       clip-path="none" />
    <circle
       cx="248.26216"
       cy="98.205528"
       fill="#c7923c"
       id="circle2-0-9"
       style="stroke-width:0.243695"
       r="9.260417"
       clip-path="none" />
    <rect
       x="273.80649"
       y="95.82428"
       width="129.96484"
       height="4.7624998"
       rx="0"
       ry="0"
       fill="#7a8ca3"
       id="rect3-6-1"
       style="stroke-width:0.256171"
       clip-path="none" />
    <text
       xml:space="preserve"
       style="font-size:19.8967px;font-family:Montserrat;-inkscape-font-specification:'Montserrat, Normal';letter-spacing:2.64583px;writing-mode:lr-tb;direction:ltr;fill:#000000;stroke-width:0.264583"
       x="70.90094"
       y="216.80817"
       id="text4"><tspan
         sodipodi:role="line"
         id="tspan4"
         style="stroke-width:0.264583"
         x="70.90094"
         y="216.80817" /></text>
    <text
       xml:space="preserve"
       transform="matrix(0.26458333,0,0,0.26458333,-55.700241,1.7019131)"
       id="text1"
       style="font-size:75.2px;font-family:Montserrat;-inkscape-font-specification:'Montserrat, Normal';letter-spacing:10px;writing-mode:lr-tb;direction:ltr;white-space:pre;shape-inside:url(#rect1);display:inline;fill:#000000"><tspan
         x="-42"
         y="14.11583"
         id="tspan3">
</tspan></text>
    <text
       xml:space="preserve"
       transform="matrix(0.26458333,0,0,0.26458333,-55.700241,1.7019131)"
       id="text2"
       style="font-size:75.2px;font-family:Montserrat;-inkscape-font-specification:'Montserrat, Normal';letter-spacing:10px;writing-mode:lr-tb;direction:ltr;white-space:pre;shape-inside:url(#rect2);display:inline;fill:#000000" />
  </g>
</svg>
